HIERARCHY
ROOT hip
{
  OFFSET 0.00112043 5.09927 -9.65472
  CHANNELS 6 Xposition Yposition Zposition Zrotation Xrotation Yrotation
  JOINT abdomen
  {
    OFFSET 0 -1.186 -1.5018
    CHANNELS 3 Zrotation Xrotation Yrotation
    JOINT abdomen2
    {
      OFFSET 0 9.964 0.2134
      CHANNELS 3 Zrotation Xrotation Yrotation
      JOINT chest
      {
        OFFSET 0 13.134 -3.2573
        CHANNELS 3 Zrotation Xrotation Yrotation
        JOINT neck
        {
          OFFSET 0 20.686 -1.6905
          CHANNELS 3 Zrotation Xrotation Yrotation
          JOINT head
          {
            OFFSET 0 7.238 -0.1237
            CHANNELS 3 Zrotation Xrotation Yrotation
            End Site
            {
              OFFSET 0 0 0
            }
          }
        }
        JOINT lCollar
        {
          OFFSET 1.7069 20.075 5.0056
          CHANNELS 3 Zrotation Xrotation Yrotation
          JOINT lShldr
          {
            OFFSET 13.6458 -0.047 -4.849
            CHANNELS 3 Zrotation Xrotation Yrotation
            JOINT lForeArm
            {
              OFFSET 28.3255 -0.9759 2.2888
              CHANNELS 3 Zrotation Xrotation Yrotation
              JOINT lHand
              {
                OFFSET 22.1583 -0.53 10.8316
                CHANNELS 3 Zrotation Xrotation Yrotation
                JOINT lThumb1
                {
                  OFFSET 0.786 0.112 2.5817
                  CHANNELS 3 Zrotation Xrotation Yrotation
                  JOINT lThumb2
                  {
                    OFFSET 0.3601 -0.878 4.2331
                    CHANNELS 3 Zrotation Xrotation Yrotation
                    JOINT lThumb2_End
                    {
                      OFFSET 1.8127 -1.216 2.2227
                      CHANNELS 3 Zrotation Xrotation Yrotation
                      End Site
                      {
                        OFFSET 0.0181 -0.0122 0.0222
                      }
                    }
                  }
                }
                JOINT lCarpal1
                {
                  OFFSET 0.9571 1.114 1.7695
                  CHANNELS 3 Zrotation Xrotation Yrotation
                  JOINT lIndex1
                  {
                    OFFSET 4.1246 0.487 4.1451
                    CHANNELS 3 Zrotation Xrotation Yrotation
                    JOINT lIndex2
                    {
                      OFFSET 3.4052 -1.454 2.7682
                      CHANNELS 3 Zrotation Xrotation Yrotation
                      JOINT lIndex2_End
                      {
                        OFFSET 1.4531 -1.795 1.2713
                        CHANNELS 3 Zrotation Xrotation Yrotation
                        End Site
                        {
                          OFFSET 0.0145 -0.0179 0.0127
                        }
                      }
                    }
                  }
                  JOINT lMid1
                  {
                    OFFSET 5.6954 0.21 2.1184
                    CHANNELS 3 Zrotation Xrotation Yrotation
                    JOINT lMid2
                    {
                      OFFSET 3.9766 -1.54 2.3863
                      CHANNELS 3 Zrotation Xrotation Yrotation
                      JOINT lMid2_End
                      {
                        OFFSET 1.4042 -1.926 1.125
                        CHANNELS 3 Zrotation Xrotation Yrotation
                        End Site
                        {
                          OFFSET 0.014 -0.0193 0.0113
                        }
                      }
                    }
                  }
                }
                JOINT lCarpal2
                {
                  OFFSET 2.0956 0.66 -0.3894
                  CHANNELS 3 Zrotation Xrotation Yrotation
                  JOINT lRing1
                  {
                    OFFSET 5.0395 -0.09 2.4971
                    CHANNELS 3 Zrotation Xrotation Yrotation
                    JOINT lRing2
                    {
                      OFFSET 3.7921 -1.552 1.4806
                      CHANNELS 3 Zrotation Xrotation Yrotation
                      JOINT lRing2_End
                      {
                        OFFSET 1.4655 -1.808 0.9609
                        CHANNELS 3 Zrotation Xrotation Yrotation
                        End Site
                        {
                          OFFSET 0.0147 -0.0181 0.0096
                        }
                      }
                    }
                  }
                  JOINT lPinky1
                  {
                    OFFSET 4.9141 -1.269 0.3591
                    CHANNELS 3 Zrotation Xrotation Yrotation
                    JOINT lPinky2
                    {
                      OFFSET 3.1477 -1.685 0.8462
                      CHANNELS 3 Zrotation Xrotation Yrotation
                      JOINT lPinky2_End
                      {
                        OFFSET 0.8055 -1.585 0.7955
                        CHANNELS 3 Zrotation Xrotation Yrotation
                        End Site
                        {
                          OFFSET 0.0081 -0.0158 0.008
                        }
                      }
                    }
                  }
                }
              }
            }
          }
        }
        JOINT rCollar
        {
          OFFSET -1.7069 20.075 5.0056
          CHANNELS 3 Zrotation Xrotation Yrotation
          JOINT rShldr
          {
            OFFSET -13.6458 -0.047 -4.849
            CHANNELS 3 Zrotation Xrotation Yrotation
            JOINT rForeArm
            {
              OFFSET -28.3255 -0.9759 2.2888
              CHANNELS 3 Zrotation Xrotation Yrotation
              JOINT rHand
              {
                OFFSET -22.1583 -0.53 10.8316
                CHANNELS 3 Zrotation Xrotation Yrotation
                JOINT rThumb1
                {
                  OFFSET -0.786 0.112 2.5817
                  CHANNELS 3 Zrotation Xrotation Yrotation
                  JOINT rThumb2
                  {
                    OFFSET -0.3601 -0.878 4.2331
                    CHANNELS 3 Zrotation Xrotation Yrotation
                    JOINT rThumb2_End
                    {
                      OFFSET -1.8127 -1.216 2.2227
                      CHANNELS 3 Zrotation Xrotation Yrotation
                      End Site
                      {
                        OFFSET -0.0181 -0.0122 0.0222
                      }
                    }
                  }
                }
                JOINT rCarpal1
                {
                  OFFSET -0.9571 1.114 1.7695
                  CHANNELS 3 Zrotation Xrotation Yrotation
                  JOINT rIndex1
                  {
                    OFFSET -4.1246 0.487 4.1451
                    CHANNELS 3 Zrotation Xrotation Yrotation
                    JOINT rIndex2
                    {
                      OFFSET -3.4052 -1.454 2.7682
                      CHANNELS 3 Zrotation Xrotation Yrotation
                      JOINT rIndex2_End
                      {
                        OFFSET -1.4531 -1.795 1.2713
                        CHANNELS 3 Zrotation Xrotation Yrotation
                        End Site
                        {
                          OFFSET -0.0145 -0.018 0.0127
                        }
                      }
                    }
                  }
                  JOINT rMid1
                  {
                    OFFSET -5.6954 0.21 2.1184
                    CHANNELS 3 Zrotation Xrotation Yrotation
                    JOINT rMid2
                    {
                      OFFSET -3.9766 -1.54 2.3863
                      CHANNELS 3 Zrotation Xrotation Yrotation
                      JOINT rMid2_End
                      {
                        OFFSET -1.4042 -1.926 1.125
                        CHANNELS 3 Zrotation Xrotation Yrotation
                        End Site
                        {
                          OFFSET -0.014 -0.0193 0.0113
                        }
                      }
                    }
                  }
                }
                JOINT rCarpal2
                {
                  OFFSET -2.0956 0.66 -0.3894
                  CHANNELS 3 Zrotation Xrotation Yrotation
                  JOINT rRing1
                  {
                    OFFSET -5.0395 -0.09 2.4971
                    CHANNELS 3 Zrotation Xrotation Yrotation
                    JOINT rRing2
                    {
                      OFFSET -3.7921 -1.552 1.4806
                      CHANNELS 3 Zrotation Xrotation Yrotation
                      JOINT rRing2_End
                      {
                        OFFSET -1.4655 -1.808 0.9609
                        CHANNELS 3 Zrotation Xrotation Yrotation
                        End Site
                        {
                          OFFSET -0.0147 -0.0181 0.0096
                        }
                      }
                    }
                  }
                  JOINT rPinky1
                  {
                    OFFSET -4.9141 -1.269 0.3592
                    CHANNELS 3 Zrotation Xrotation Yrotation
                    JOINT rPinky2
                    {
                      OFFSET -3.1477 -1.685 0.8462
                      CHANNELS 3 Zrotation Xrotation Yrotation
                      JOINT rPinky2_End
                      {
                        OFFSET -0.8055 -1.585 0.7955
                        CHANNELS 3 Zrotation Xrotation Yrotation
                        End Site
                        {
                          OFFSET -0.0081 -0.0158 0.008
                        }
                      }
                    }
                  }
                }
              }
            }
          }
        }
      }
    }
  }
  JOINT lThigh
  {
    OFFSET 8.367 -8.2066 0.5982
    CHANNELS 3 Zrotation Xrotation Yrotation
    JOINT lShin
    {
      OFFSET 2.1923 -43.463 -0.4932
      CHANNELS 3 Zrotation Xrotation Yrotation
      JOINT lFoot
      {
        OFFSET 0.7333 -45.8593 -2.6451
        CHANNELS 3 Zrotation Xrotation Yrotation
        End Site
        {
          OFFSET 2.6618 -4.2699 12.3931
        }
      }
    }
  }
  JOINT rThigh
  {
    OFFSET -8.367 -8.2066 0.5982
    CHANNELS 3 Zrotation Xrotation Yrotation
    JOINT rShin
    {
      OFFSET -2.1923 -43.463 -0.4931
      CHANNELS 3 Zrotation Xrotation Yrotation
      JOINT rFoot
      {
        OFFSET -0.7333 -45.8593 -2.6451
        CHANNELS 3 Zrotation Xrotation Yrotation
        End Site
        {
          OFFSET -2.6618 -4.2699 12.3931
        }
      }
    }
  }
}
MOTION
Frames:	4
Frame Time:	0.0333333
41.1938 35.4444 39.1032 -179.997 75.0068 2.55082e-010 0.0518949 9.3033 1.93999 -0.224949 18.6029 3.95118 -0.224949 18.6029 3.95118 -9.92212 3.47961 11.9641 -7.85202 -20.8263 -9.12312 -12.1288 -17.255 -22.8721 -4.30633 -12.7136 4.22386 34.3968 74.7513 -98.4225 -11.0732 -5.65673 35.6537 -9.82125e-008 -4.14497e-008 4.98118e-009 -1.96425e-007 -8.28995e-008 9.96236e-009 -0 0 9.54166e-015 -8.82781e-032 7.95139e-016 6.36111e-015 -9.82125e-008 -4.14497e-008 4.98118e-009 -1.96425e-007 -8.28995e-008 9.96236e-009 -7.95139e-016 0 -0 -9.82125e-008 -4.14497e-008 4.98118e-009 -1.96425e-007 -8.28995e-008 9.96236e-009 -7.95139e-016 0 -0 -8.82781e-032 7.95139e-016 6.36111e-015 -9.82125e-008 -4.14497e-008 4.98118e-009 -1.96425e-007 -8.28995e-008 9.96236e-009 -7.95139e-016 0 -0 -9.82125e-008 -4.14497e-008 4.98118e-009 -1.96425e-007 -8.28995e-008 9.96236e-009 -7.95139e-016 0 -0 7.58888 -6.50867 1.62043 15.5928 -9.72542 28.4856 20.3589 19.7958 33.8241 39.5561 -29.9723 -2.5706 -3.29648e-006 -3.59112e-006 3.40901e-006 1.27333e-006 -2.54543e-006 -1.53711e-006 1.59028e-015 6.06293e-015 -7.95139e-016 6.89673e-032 2.48481e-015 -1.59028e-015 -3.29648e-006 -3.59112e-006 3.40901e-006 1.27333e-006 -2.54543e-006 -1.53711e-006 -1.59028e-015 9.93923e-017 -7.95139e-016 -3.29648e-006 -3.59112e-006 3.40901e-006 1.27333e-006 -2.54543e-006 -1.53711e-006 -1.59028e-015 9.93923e-017 -7.95139e-016 6.89673e-032 2.48481e-015 -1.59028e-015 -3.29648e-006 -3.59112e-006 3.40901e-006 1.27333e-006 -2.54543e-006 -1.53711e-006 -1.59028e-015 9.93923e-017 -7.95139e-016 -3.29648e-006 -3.59112e-006 3.40901e-006 1.27333e-006 -2.54543e-006 -1.53711e-006 -1.59028e-015 9.93923e-017 -7.95139e-016 77.04 -53.1903 128.725 71.5715 39.7479 -72.158 -3.82094 24.2572 3.0129 -34.1779 8.88072 -28.2107 -67.9852 39.397 66.2969 32.2777 24.5237 4.95514 
41.2005 35.437 39.1038 -179.997 75.0068 2.55082e-010 0.0459985 9.31607 1.93507 -0.236633 18.6283 3.94235 -0.236634 18.6282 3.94235 -9.90233 3.49233 11.9053 -7.6736 -20.6241 -9.05896 -11.5583 -17.7334 -22.9732 -4.30634 -12.7136 4.22385 34.3052 74.7045 -98.7754 -10.6542 -6.17015 35.868 4.41391e-032 7.95139e-016 -3.18055e-015 9.82649e-008 4.12273e-008 -5.67671e-009 -1.59028e-015 -7.95139e-016 -9.54166e-015 -7.95139e-016 0 3.18055e-015 2.38542e-015 7.95139e-016 6.36111e-015 9.82649e-008 4.12273e-008 -5.67671e-009 -8.82781e-032 -7.95139e-016 -6.36111e-015 2.38542e-015 7.95139e-016 6.36111e-015 9.82649e-008 4.12273e-008 -5.67671e-009 -8.82781e-032 -7.95139e-016 -6.36111e-015 -7.95139e-016 0 3.18055e-015 2.38542e-015 7.95139e-016 6.36111e-015 9.82649e-008 4.12273e-008 -5.67671e-009 -8.82781e-032 -7.95139e-016 -6.36111e-015 2.38542e-015 7.95139e-016 6.36111e-015 9.82649e-008 4.12273e-008 -5.67671e-009 -8.82781e-032 -7.95139e-016 -6.36111e-015 7.10619 -7.039 1.39346 15.5927 -9.7254 28.4856 20.4221 19.8673 34.0241 39.6347 -30.3134 -2.05166 7.95139e-016 7.35503e-015 -7.95139e-016 -7.95139e-016 1.33186e-014 -3.18055e-015 -7.95139e-016 1.09332e-015 -2.38542e-015 7.95139e-016 7.45443e-015 -7.95139e-016 -3.18055e-015 -8.84592e-015 -0 2.38542e-015 1.04362e-014 -1.59028e-015 7.95139e-016 4.07509e-015 -7.95139e-016 -3.18055e-015 -8.84592e-015 -0 2.38542e-015 1.04362e-014 -1.59028e-015 7.95139e-016 4.07509e-015 -7.95139e-016 7.95139e-016 7.45443e-015 -7.95139e-016 -3.18055e-015 -8.84592e-015 -0 2.38542e-015 1.04362e-014 -1.59028e-015 7.95139e-016 4.07509e-015 -7.95139e-016 -3.18055e-015 -8.84592e-015 -0 2.38542e-015 1.04362e-014 -1.59028e-015 7.95139e-016 4.07509e-015 -7.95139e-016 77.323 -53.2048 128.954 71.5889 39.7511 -72.1759 -3.82518 24.2464 3.01879 -34.7091 8.66368 -28.7968 -68.0096 39.3981 66.3118 31.4907 24.8816 5.71375 
41.2088 35.4275 39.1045 -179.997 75.0068 2.55082e-010 0.0386966 9.33203 1.92887 -0.251091 18.6599 3.93122 -0.251092 18.6599 3.93122 -9.88243 3.5056 11.8465 -7.4956 -20.4217 -8.99554 -10.8445 -18.3326 -23.095 -4.30634 -12.7136 4.22385 34.189 74.6458 -99.215 -10.1266 -6.81022 36.1409 9.8319e-008 4.09551e-008 -6.54304e-009 8.44715e-007 -6.39341e-007 6.29916e-006 -1.96638e-007 -8.19102e-008 1.30861e-008 0 3.18055e-015 -0 9.8319e-008 4.09551e-008 -6.54305e-009 8.44715e-007 -6.39341e-007 6.29916e-006 -1.96638e-007 -8.19102e-008 1.30861e-008 9.8319e-008 4.09551e-008 -6.54305e-009 8.44715e-007 -6.39341e-007 6.29916e-006 -1.96638e-007 -8.19102e-008 1.30861e-008 0 3.18055e-015 -0 9.8319e-008 4.09551e-008 -6.54305e-009 8.44715e-007 -6.39341e-007 6.29916e-006 -1.96638e-007 -8.19102e-008 1.30861e-008 9.8319e-008 4.09551e-008 -6.54305e-009 8.44715e-007 -6.39341e-007 6.29916e-006 -1.96638e-007 -8.19102e-008 1.30861e-008 6.49827 -7.70006 1.10421 15.5927 -9.72541 28.4856 20.5007 19.9565 34.2742 39.7391 -30.7382 -1.39897 -7.95139e-016 1.53064e-014 -3.18055e-015 1.59028e-015 1.28216e-014 -0 -2.38542e-015 1.65985e-014 -1.59028e-015 -2.38542e-015 2.48481e-015 -1.59028e-015 -3.18055e-015 -1.89839e-014 3.18055e-015 4.49667e-031 1.6201e-014 -1.59028e-015 -2.38542e-015 1.63003e-014 -4.77083e-015 -3.18055e-015 -1.89839e-014 3.18055e-015 4.49667e-031 1.6201e-014 -1.59028e-015 -2.38542e-015 1.63003e-014 -4.77083e-015 -2.38542e-015 2.48481e-015 -1.59028e-015 -3.18055e-015 -1.89839e-014 3.18055e-015 4.49667e-031 1.6201e-014 -1.59028e-015 -2.38542e-015 1.63003e-014 -4.77083e-015 -3.18055e-015 -1.89839e-014 3.18055e-015 4.49667e-031 1.6201e-014 -1.59028e-015 -2.38542e-015 1.63003e-014 -4.77083e-015 77.6769 -53.222 129.24 71.6105 39.755 -72.198 -3.83035 24.2332 3.02608 -35.377 8.39814 -29.5314 -68.0402 39.4003 66.3308 30.4944 25.3168 6.67237 
41.2163 35.4191 39.1051 -179.997 75.0068 2.55082e-010 0.0321692 9.3464 1.92322 -0.264003 18.6885 3.92105 -0.264001 18.6885 3.92105 -9.86249 3.51894 11.7877 -7.31798 -20.219 -8.93285 -10.2003 -18.8737 -23.1974 -4.30634 -12.7136 4.22386 34.0836 74.5934 -99.6099 -9.64837 -7.38437 36.3923 -3.93432e-007 -1.62854e-007 2.92789e-008 2.38542e-015 2.38542e-015 6.36111e-015 3.18055e-015 1.59028e-015 1.27222e-014 7.95139e-016 2.38542e-015 3.18055e-015 -3.93432e-007 -1.62854e-007 2.92789e-008 2.38542e-015 2.38542e-015 3.18055e-015 3.18055e-015 3.18055e-015 3.18055e-015 -3.93432e-007 -1.62854e-007 2.92789e-008 2.38542e-015 2.38542e-015 3.18055e-015 3.18055e-015 3.18055e-015 3.18055e-015 7.95139e-016 2.38542e-015 3.18055e-015 -3.93432e-007 -1.62854e-007 2.92789e-008 2.38542e-015 2.38542e-015 3.18055e-015 3.18055e-015 3.18055e-015 3.18055e-015 -3.93432e-007 -1.62854e-007 2.92789e-008 2.38542e-015 2.38542e-015 3.18055e-015 3.18055e-015 3.18055e-015 3.18055e-015 5.94722 -8.29259 0.836715 15.5927 -9.72545 28.4856 20.5711 20.0373 34.4992 39.8381 -31.1201 -0.808235 2.37865e-006 1.94877e-006 -1.0837e-006 -2.37865e-006 -1.94877e-006 1.0837e-006 2.37865e-006 1.94877e-006 -1.0837e-006 3.18055e-015 1.63003e-014 -1.59028e-015 2.37865e-006 1.94877e-006 -1.0837e-006 -2.37865e-006 -1.94877e-006 1.0837e-006 2.37865e-006 1.94877e-006 -1.0837e-006 2.37865e-006 1.94877e-006 -1.0837e-006 -2.37865e-006 -1.94877e-006 1.0837e-006 2.37865e-006 1.94877e-006 -1.0837e-006 3.18055e-015 1.63003e-014 -1.59028e-015 2.37865e-006 1.94877e-006 -1.0837e-006 -2.37865e-006 -1.94877e-006 1.0837e-006 2.37865e-006 1.94877e-006 -1.0837e-006 2.37865e-006 1.94877e-006 -1.0837e-006 -2.37865e-006 -1.94877e-006 1.0837e-006 2.37865e-006 1.94877e-006 -1.0837e-006 77.9956 -53.2365 129.498 71.63 39.7585 -72.2181 -3.8351 24.2211 3.03269 -35.9811 8.1668 -30.1956 -68.068 39.402 66.3483 29.5872 25.6951 7.54604 
